# xmcd CD database file
#
# Track frame offsets:
#	150
#	19019
#	41953
#	62549
#	86920
#	111466
#	138620
#	161068
#	177230
#
# Disc length: 2792 seconds
#
# Revision: 2
# Processed by: cddbd v1.5.2PL0 Copyright (c) Steve Scherf et al.
# Submitted via: CDex 1.70beta2
#
DISCID=800ae609
DTITLE=Teddy Pendergrass - Life is a Song Worth Singing
DYEAR=1978
DGENRE=Soul
TTITLE0=Life is a Song Worth Singing - Teddy Pendergrass
TTITLE1=Only You - Teddy Pendergrass
TTITLE2=Cold, Cold World - Teddy Pendergrass
TTITLE3=Get Up, Get Down, Get Funky, Get Loose - Teddy Pendergrass
TTITLE4=Close the Door - Teddy Pendergrass
TTITLE5=It Don't Hurt Me Now - Teddy Pendergrass
TTITLE6=When Somebody Loves You Back - Teddy Pendergrass
TTITLE7=Only You (single version) - Teddy Pendergrass
TTITLE8=Get Down, Get Funky (disco version) - Teddy Pendergrass
EXTD=YEAR: 1978
EXTT0=
EXTT1=
EXTT2=
EXTT3=
EXTT4=
EXTT5=
EXTT6=
EXTT7=
EXTT8=
PLAYORDER=
